# xmcd CD Database Entry
#
# Track frame offsets:
# 150
# 17874
# 32452
# 57370
# 81022
# 101973
# 120692
# 143098
# 166554
# 193481
# 217386
# 246266
# 271014
#
# Disc length: 3921 seconds
#
# Revision: 2
# Processed by: cddbd v1.4PL0 Copyright (c) Steve Scherf et al.
# Submitted via: tcd 2.0b
#
DISCID=ba0f4f0d
DTITLE=VIVA LA VITA/ by MARTINI 
DYEAR=1900
DGENRE=
TTITLE0=BIG MUFF "My funny Valentine"
TTITLE1=JAKATTA "American dream"
TTITLE2=MO'HORIZONS "Brazil"
TTITLE3=BUTTER FINGER "Wanna go somewhere and child?"
TTITLE4=GERD "Malagueña"
TTITLE5=DE-PHAZZ feat. PAT APPLETON "The mambo craze"
TTITLE6=TRÜBY TRIO "Prima Vera"
TTITLE7=FRANKIE VALENTINE "The fox congo strutt"
TTITLE8=BLUE 6 "Sweeter love"
TTITLE9=CAN 7 "Cruisin"
TTITLE10=MARTINI BROS. "La Riviera"
TTITLE11=BENJI CANDELARIO pr. ARNOLD JARVIS "Learn to give"
TTITLE12=JON CUTLER feat. KEMDI "You groove me"
EXTD=Disc 1
EXTT0=
EXTT1=
EXTT2=
EXTT3=
EXTT4=
EXTT5=
EXTT6=
EXTT7=
EXTT8=
EXTT9=
EXTT10=
EXTT11=
EXTT12=
PLAYORDER=
